<svg xmlns="http://www.w3.org/2000/svg" width="30" height="24"><path d="M3.293 0A3.268 3.268 0 0 0 .008 3.245a3.285 3.285 0 0 0 6.569 0A3.268 3.268 0 0 0 3.293 0zm0 4.8a1.552 1.552 0 1 1 1.571-1.555A1.563 1.563 0 0 1 3.293 4.8zm25.848-2.4H9.148a.846.846 0 1 0 0 1.693h19.993a.846.846 0 1 0 0-1.693zM3.293 8.747a.846.846 0 1 0 0 1.692 1.552 1.552 0 1 1-1.571 1.552.852.852 0 0 0-.857-.846.852.852 0 0 0-.857.846 3.285 3.285 0 0 0 6.569 0 3.268 3.268 0 0 0-3.284-3.244zm25.848 2.4H9.148a.846.846 0 1 0 0 1.693h19.993a.846.846 0 1 0 0-1.696zM3.293 17.492a3.245 3.245 0 1 0 3.285 3.244 3.268 3.268 0 0 0-3.285-3.244zm0 4.8a1.552 1.552 0 1 1 1.571-1.552 1.563 1.563 0 0 1-1.571 1.548zm25.848-2.4H9.148a.846.846 0 1 0 0 1.693h19.993a.846.846 0 1 0 0-1.695z" fill-rule="evenodd" opacity=".4"/></svg>