<svg xmlns="http://www.w3.org/2000/svg" width="30" height="30"><path d="M29.39 0H.61A.615.615 0 0 0 0 .612v11.327a.615.615 0 0 0 .61.612h17.25l5.35 3.864a.646.646 0 0 0 .36.116.609.609 0 0 0 .28-.068.6.6 0 0 0 .33-.545v-3.367h5.21a.609.609 0 0 0 .61-.612V.612A.609.609 0 0 0 29.39 0zm-.61 11.327h-5.21a.609.609 0 0 0-.61.612v2.782l-4.54-3.279a.606.606 0 0 0-.36-.115H1.23v-10.1h27.55v10.1zm.61 6.428H12.14l-5.35-3.863a.61.61 0 0 0-.97.5v3.367H.61a.615.615 0 0 0-.61.612v11.021a.615.615 0 0 0 .61.612h28.78a.609.609 0 0 0 .61-.612V18.367a.609.609 0 0 0-.61-.612zm-.61 11.02H1.23v-9.8h5.2a.61.61 0 0 0 .61-.613V15.58l4.54 3.279a.63.63 0 0 0 .36.116h16.84v9.8zM3.67 2.755h22.66V3.98H3.67V2.755zm0 2.449h22.66v1.225H3.67V5.2zm0 2.449h17.45v1.225H3.67V7.653zm3.98 13.776h18.68v1.224H7.65v-1.224zm-3.98 2.448h22.66V25.1H3.67v-1.225zm0 2.45h19.6v1.224H3.67v-1.224zM24.8 7.653h1.53v1.225H24.8V7.653zm-2.45 0h1.53v1.225h-1.53V7.653zM3.67 21.429h1.54v1.224H3.67v-1.224z" fill-rule="evenodd" opacity=".4"/></svg>