<svg xmlns="http://www.w3.org/2000/svg" viewBox="0 0 442 442"><path d="M377.306 64.693C335.588 22.976 280.077 0 221 0S106.412 22.976 64.694 64.693C22.976 106.412 0 161.923 0 221s22.976 114.588 64.694 156.307C106.412 419.024 161.923 442 221 442s114.588-22.976 156.306-64.693C419.024 335.588 442 280.077 442 221s-22.976-114.588-64.694-156.307zm-7.35 291.12l-35.561-35.56c21.913-24.97 34.781-56.064 36.937-89.253h50.418c-2.358 47.898-21.56 91.439-51.794 124.813zM20.25 231h50.418c2.156 33.189 15.025 64.283 36.937 89.253l-35.561 35.56C41.81 322.439 22.608 278.898 20.25 231zM72.044 86.187l35.561 35.56C85.692 146.717 72.824 177.811 70.667 211H20.25c2.358-47.898 21.56-91.439 51.794-124.813zM221 351.667c-72.05 0-130.667-58.617-130.667-130.667S148.95 90.333 221 90.333 351.667 148.95 351.667 221 293.05 351.667 221 351.667zm99.253-244.062C295.283 85.692 264.189 72.823 231 70.667V20.25c47.898 2.358 91.44 21.561 124.814 51.795l-35.561 35.56zM211 70.667c-33.189 2.156-64.283 15.025-89.253 36.938l-35.561-35.56C119.56 41.81 163.102 22.608 211 20.25v50.417zm-89.253 263.728c24.97 21.913 56.064 34.781 89.253 36.938v50.417c-47.898-2.358-91.44-21.561-124.814-51.795l35.561-35.56zM231 371.333c33.189-2.156 64.283-15.025 89.253-36.938l35.561 35.56C322.44 400.19 278.898 419.392 231 421.75v-50.417zM371.333 211c-2.156-33.189-15.025-64.283-36.937-89.253l35.561-35.56C400.19 119.561 419.392 163.102 421.75 211h-50.417z"/><path d="M221 140.667c-44.296 0-80.333 36.037-80.333 80.333s36.038 80.333 80.333 80.333 80.333-36.037 80.333-80.333-36.037-80.333-80.333-80.333zm0 140.666c-33.268 0-60.333-27.065-60.333-60.333s27.065-60.333 60.333-60.333 60.333 27.065 60.333 60.333-27.065 60.333-60.333 60.333z"/></svg>