<svg xmlns="http://www.w3.org/2000/svg" width="40" height="27"><path d="M39.286 0H.714A.714.714 0 0 0 0 .714v25.571A.714.714 0 0 0 .714 27h38.572a.714.714 0 0 0 .714-.715V.714A.714.714 0 0 0 39.286 0zM1.428 4.429h6.429v12.857H1.428V4.429zm37.144 12.857h-2.143V4.429h2.143v12.857zm0-14.286h-2.857a.715.715 0 0 0-.715.715V18a.714.714 0 0 0 .715.714h2.857v6.857H1.428v-6.857h7.143A.715.715 0 0 0 9.286 18V3.714A.715.715 0 0 0 8.571 3H1.428V1.429h37.144V3zM20.714 20.571A1.429 1.429 0 1 1 19.286 22a1.429 1.429 0 0 1 1.428-1.429zm-8.571-1.857h20a.713.713 0 0 0 .714-.714V3.714A.714.714 0 0 0 32.143 3h-20a.715.715 0 0 0-.715.715V18a.714.714 0 0 0 .715.714zm.714-14.285h18.572v12.857H12.857V4.429zm-.714 16.856h2.143v1.429h-2.143v-1.429zm3.571 0h2.143v1.429h-2.143v-1.429zm7.857 0h2.143v1.429h-2.143v-1.429zm3.572 0h2.143v1.429h-2.143v-1.429z" fill-rule="evenodd" opacity=".4"/></svg>