<svg xmlns="http://www.w3.org/2000/svg" width="30.031" height="29.969"><path d="M8.988 14.349a.672.672 0 0 0 .95-.951l-1.251-1.25 1.793-1.791a.672.672 0 0 0-.951-.95l-1.792 1.791-1.575-1.573 1.793-1.792a.672.672 0 1 0-.951-.949L5.211 8.675 1.628 5.094l3.515-3.488 8.3 8.292a.672.672 0 1 0 .951-.95L5.622.182a.674.674 0 0 0-.95 0L.2 4.616a.672.672 0 0 0 0 .952zm20.838 10.02l-8.779-8.773a.672.672 0 1 0-.951.95l8.3 8.3-3.5 3.5-3.584-3.582 1.792-1.791a.672.672 0 0 0-.951-.95l-1.792 1.791-1.574-1.573 1.792-1.792a.672.672 0 0 0-.951-.95l-1.792 1.792-1.244-1.243a.672.672 0 1 0-.95.95l8.779 8.773a.672.672 0 0 0 .951 0l4.453-4.45a.671.671 0 0 0 .001-.952zM4.261 4.139a1.345 1.345 0 1 0 .95-.394 1.334 1.334 0 0 0-.95.397zm21.587 21.573a1.344 1.344 0 1 0-.951.394 1.334 1.334 0 0 0 .951-.391zm1.209-18.023l1.926-1.924a3.36 3.36 0 0 0-4.754-4.75l-1.925 1.924-2.376 2.374-15.409 15.4a.509.509 0 0 0-.057.066.091.091 0 0 0-.011.016.587.587 0 0 0-.043.067.035.035 0 0 1 0 .008l-2.5 4.735a.016.016 0 0 0 0 .007L.154 28.929a.671.671 0 0 0 .594.985.664.664 0 0 0 .314-.078l3.32-1.752h.006l4.739-2.5c.025-.015.05-.03.074-.047l.012-.009a.619.619 0 0 0 .067-.058zM4.181 26.669l-.866-.866 1.415-2.676.291 1.324v.01a.629.629 0 0 0 .022.074v.014a.62.62 0 0 0 .036.079l.007.012a.581.581 0 0 0 .04.061l.012.017c.018.022.036.044.056.065s.043.038.065.056l.017.012a.5.5 0 0 0 .062.04l.011.007a.62.62 0 0 0 .079.036h.013a.708.708 0 0 0 .075.022h.01l1.325.29zm2.841-2.755l2.471-2.47a.672.672 0 0 0-.951-.949l-2.471 2.469-.342-1.558L20.4 6.742l.95.95-11.186 11.177a.672.672 0 1 0 .95.95l11.19-11.181.951.95L8.581 24.251zM22.779 4.369l2.852 2.85-1.426 1.425-2.852-2.85zm2.4-2.4a2.016 2.016 0 1 1 2.852 2.85l-1.451 1.45-2.852-2.851zM2.656 27.047l.279.279-.592.313z" fill-rule="evenodd" opacity=".4"/></svg>